<?xml version="1.0" encoding="UTF-8"?>
<svg width="20px" height="20px" viewBox="0 0 20 20" version="1.1" xmlns="http://www.w3.org/2000/svg" xmlns:xlink="http://www.w3.org/1999/xlink">
    <!-- Generator: Sketch 47.1 (45422) - http://www.bohemiancoding.com/sketch -->
    <title>icon/navbar/01/off</title>
    <desc>Created with Sketch.</desc>
    <defs></defs>
    <g id="Design" stroke="none" stroke-width="1" fill="none" fill-rule="evenodd">
        <g id="Exportables" transform="translate(-124.000000, -22.000000)" fill="#00E5FF">
            <g id="icon/navbar/02/on" transform="translate(122.000000, 20.000000)">
                <g id="Fill-190" transform="translate(2.000000, 2.000000)">
                    <path d="M16,5 L4,5 L4,3 L16,3 L16,5 Z M16,9 L4,9 L4,7 L16,7 L16,9 Z M11,13 L4,13 L4,11 L11,11 L11,13 Z M18,0 L2,0 C0.896,0 0,0.896 0,2 L0,14 C0,15.104 0.896,16 2,16 L3,16 L3,20 L7,16 L18,16 C19.104,16 20,15.104 20,14 L20,2 C20,0.896 19.104,0 18,0 L18,0 Z"></path>
                </g>
            </g>
        </g>
    </g>
</svg>