<?xml version="1.0" encoding="UTF-8"?>
<svg width="681px" height="200px" viewBox="0 0 681 200" version="1.1" xmlns="http://www.w3.org/2000/svg" xmlns:xlink="http://www.w3.org/1999/xlink">
    <!-- Generator: Sketch 47.1 (45422) - http://www.bohemiancoding.com/sketch -->
    <title>Logo/Full</title>
    <desc>Created with Sketch.</desc>
    <defs>
        <linearGradient x1="100%" y1="0%" x2="0%" y2="100%" id="linearGradient-1">
            <stop stop-color="#6200EA" offset="0%"></stop>
            <stop stop-color="#00E5FF" offset="100%"></stop>
        </linearGradient>
    </defs>
    <g id="Extras" stroke="none" stroke-width="1" fill="none" fill-rule="evenodd">
        <g id="Facebook-Header" transform="translate(-487.000000, -193.000000)">
            <g id="Logo/Full/Light" transform="translate(487.000000, 193.000000)">
                <g id="Page-1" transform="translate(-0.666341, -0.666667)">
                    <g id="Group-13" transform="translate(233.219178, 28.842149)">
                        <path d="M20.7443522,117.381884 C15.7867358,112.062701 13.310991,104.566901 13.310991,94.8917594 L13.310991,52.99437 L0.257394216,52.99437 L0.257394216,35.5825653 L13.310991,35.5825653 L13.310991,9.46474461 L36.1547854,9.46474461 L36.1547854,35.5825653 L57.0045955,35.5825653 L57.0045955,52.99437 L36.1547854,52.99437 L36.1547854,91.9896027 C36.1547854,97.5528263 37.1804835,101.511737 39.2368721,103.869739 C41.2909914,106.227514 45.0386471,107.406402 50.4775702,107.406402 C54.2227298,107.406402 57.9109314,106.561907 61.5371826,104.867242 L61.5371826,122.279047 C56.3387994,124.333757 49.9933136,125.362361 42.5002713,125.362361 C32.9510673,125.362361 25.6987918,122.701294 20.7443522,117.381884 Z" id="Fill-1" fill="#FFFFFF"></path>
                        <path d="M144.026547,72.4013848 C143.782603,65.5092168 141.335224,60.189807 136.683955,56.4404313 C132.02951,52.6937798 125.652482,50.8179569 117.556501,50.8179569 C109.579202,50.8179569 103.292944,52.7534847 98.7011294,56.6218161 C94.106365,60.4930988 91.6898475,65.7528036 91.4490808,72.4013848 L144.026547,72.4013848 Z M83.8341801,113.210465 C74.4068345,105.111033 69.6929348,93.8034279 69.6929348,79.2935528 C69.6929348,65.0274915 73.8628968,53.7198865 82.2028209,45.3768672 C90.5427449,37.0336209 102.446289,32.8619977 117.9189,32.8619977 C128.071722,32.8619977 136.743183,34.7975255 143.935777,38.665857 C151.125195,42.5371396 156.536206,47.8252213 160.16223,54.5362316 C163.788255,61.2467877 165.60138,68.8958229 165.60138,77.4799319 L165.60138,87.9993417 L91.4490808,87.9993417 C93.0184897,100.93941 104.259188,107.406379 125.170948,107.406379 C130.729006,107.406379 136.411646,106.924654 142.213421,105.955528 C148.015196,104.989126 153.091267,103.659955 157.442542,101.965289 L157.442542,119.558479 C153.332261,121.253144 148.043335,122.641793 141.578941,123.730102 C135.11137,124.818184 128.675568,125.362338 122.270174,125.362338 C106.072086,125.362338 93.2619795,121.312622 83.8341801,113.210465 L83.8341801,113.210465 Z" id="Fill-3" fill="#FFFFFF"></path>
                        <path d="M179.197848,35.5825426 L200.591142,35.5825426 L200.591142,47.0088763 C204.45816,42.4152327 208.990747,38.9096708 214.188677,36.4894665 C219.384337,34.0719864 224.641947,32.8619977 229.962189,32.8619977 C236.729754,32.8619977 242.168904,33.9814075 246.279185,36.2172758 C250.38697,38.4563224 253.469056,41.8116005 255.525672,46.2835641 C259.39269,41.9305562 264.075047,38.6063791 269.576601,36.3080817 C275.074978,34.0125085 280.545217,32.8619977 285.98414,32.8619977 C296.86244,32.8619977 304.658199,35.5825426 309.372099,41.0238593 C314.085999,46.4651759 316.443062,54.4454257 316.443062,64.9650624 L316.443062,122.641793 L294.505603,122.641793 L294.505603,68.0483768 C294.505603,61.881748 293.264781,57.4692622 290.788809,54.8079682 C288.310115,52.1498524 284.352554,50.8179569 278.913404,50.8179569 C275.04389,50.8179569 271.508635,51.574597 268.307413,53.0851532 C265.103468,54.5984336 262.171605,57.1659705 259.514321,60.7934393 C259.755088,64.6647219 259.876719,67.8075142 259.876719,70.2249943 L259.876719,122.641793 L237.758175,122.641793 L237.758175,67.6856073 C237.758175,61.4000227 236.729754,57.0159137 234.676089,54.5362316 C232.619246,52.0592736 228.87454,50.8179569 223.43539,50.8179569 C215.214602,50.8179569 207.843191,55.4740295 201.316619,64.7836776 L201.316619,122.641793 L179.197848,122.641793 L179.197848,35.5825426 Z" id="Fill-5" fill="#FFFFFF"></path>
                        <path d="M345.631366,25.8744835 C349.257391,25.8744835 352.339477,24.6672191 354.877626,22.2470148 C357.416002,19.8295346 358.684736,16.8056981 358.684736,13.1784563 C358.684736,9.55098751 357.416002,6.49877412 354.877626,4.01909194 C352.339477,1.54213394 349.257391,0.300817253 345.631366,0.300817253 C342.005115,0.300817253 338.951394,1.54213394 336.475422,4.01909194 C333.996728,6.49877412 332.758628,9.55098751 332.758628,13.1784563 C332.758628,16.8056981 333.996728,19.8295346 336.475422,22.2470148 C338.951394,24.6672191 342.005115,25.8744835 345.631366,25.8744835" id="Fill-7" fill="#00E5FF"></path>
                        <polygon id="Fill-9" fill="#FFFFFF" points="334.027816 122.641771 357.234463 122.641771 357.234463 35.5825199 334.027816 35.5825199"></polygon>
                        <path d="M389.684827,123.185948 C382.551687,121.734869 376.993856,119.739864 373.005206,117.200477 L373.005206,97.7936663 C377.719106,100.695596 383.339342,103.024994 389.86614,104.77664 C396.393165,106.530783 402.557112,107.406379 408.358887,107.406379 C414.160435,107.406379 418.389851,106.893553 421.050085,105.864722 C423.70737,104.838842 425.038735,102.934415 425.038735,100.151669 C425.038735,97.9750511 424.341623,96.1925312 422.953527,94.8009308 C421.562708,93.4125085 419.327503,92.142815 416.245643,90.9920772 C413.163329,89.8442906 408.418341,88.4245403 402.013401,86.7298751 C394.761125,84.6751646 389.05012,82.558252 384.880385,80.3818615 C380.710423,78.205244 377.566159,75.4563224 375.452586,72.1294211 C373.336516,68.805017 372.279956,64.4833371 372.279956,59.1612032 C372.279956,50.4551873 375.724441,43.897185 382.614091,39.481975 C389.503515,35.0697162 398.809456,32.8619977 410.534411,32.8619977 C416.576952,32.8619977 422.591129,33.4372531 428.573762,34.5850397 C434.55685,35.7355505 439.239434,37.3366856 442.624919,39.3913961 L442.624919,58.0728944 C438.998668,55.896277 434.584989,54.1450851 429.390009,52.8129625 C424.191399,51.4837911 418.874335,50.8179569 413.435185,50.8179569 C407.512005,50.8179569 403.038872,51.3932123 400.018963,52.5409989 C396.99633,53.6915096 395.486376,55.896277 395.486376,59.1612032 C395.486376,61.3375936 396.302169,63.0606356 397.934209,64.3303292 C399.565795,65.5997957 401.71023,66.6881044 404.370237,67.5950284 C407.027522,68.5019523 411.862826,69.8619977 418.874335,71.6758456 C426.36715,73.7332804 432.228379,75.9693757 436.460519,78.3866288 C440.689935,80.8068331 443.712794,83.7089898 445.525693,87.0926447 C447.338592,90.4792509 448.245154,94.7103519 448.245154,99.788672 C448.245154,107.528286 444.950667,113.726243 438.364187,118.379591 C431.774984,123.03294 422.256869,125.362338 409.809387,125.362338 C403.523129,125.362338 396.815018,124.637026 389.684827,123.185948" id="Fill-11" fill="#FFFFFF"></path>
                    </g>
                    <g id="Logo/Iso">
                        <g id="Group-16" transform="translate(0.144157, 0.318730)">
                            <path d="M62.2265659,199.96426 C57.1663915,199.96426 52.4181007,198.0027 48.8561459,194.44107 C45.9222647,191.507683 44.0740828,187.768594 43.5133271,183.714251 L42.0019612,185.225706 C38.4400065,188.787336 33.6917156,190.748669 28.6315413,190.748669 C23.5713669,190.748669 18.8230761,188.787336 15.2613479,185.225706 C11.6993932,181.664302 9.73765481,176.916444 9.73765481,171.856503 C9.73765481,166.79679 11.6993932,162.048931 15.2613479,158.487301 L16.7729405,156.976073 C12.7177745,156.415595 8.97879865,154.567581 6.04514414,151.633967 C2.48318937,148.072564 0.521451,143.324705 0.521451,138.264765 C0.521451,133.205051 2.48318937,128.456966 6.04514414,124.895336 L40.8695701,90.0740816 C36.8148575,89.5136036 33.0758816,87.6653633 30.1417738,84.7317494 C26.5800457,81.1703456 24.6183073,76.4224872 24.6183073,71.3627737 C24.6183073,66.3030602 26.5800457,61.5549752 30.1420005,57.9933448 L65.1720067,22.9665289 C65.4238254,22.7145064 65.6867505,22.4686032 65.990701,22.1993562 C80.7781964,8.25313123 100.124722,0.573471973 120.481016,0.573471973 C130.795612,0.573471973 140.853176,2.53095218 150.37401,6.39129263 C160.234834,10.3898828 169.078862,16.260737 176.660171,23.8415817 C184.242613,31.4231063 190.114455,40.2665563 194.113183,50.1260285 C197.973875,59.645769 199.931533,69.7028704 199.931533,80.0178868 C199.931533,90.3331299 197.973875,100.390231 194.113183,109.909972 C190.114455,119.769444 184.242613,128.612894 176.660171,136.194419 C176.365287,136.489276 176.071083,136.774388 175.776652,137.058139 C175.616404,137.231065 175.452982,137.401044 175.289107,137.565131 L120.159159,193.250763 C116.597204,196.812166 111.848687,198.773499 106.788739,198.773499 C101.728565,198.773499 96.9802741,196.812166 93.4183193,193.250536 C90.2779513,190.110454 88.4753279,186.132035 88.0104492,182.028737 L75.5967592,194.44107 C72.0350311,198.0027 67.2867402,199.96426 62.2265659,199.96426" id="Fill-12" fill="#FFFFFF"></path>
                            <path d="M70.572805,27.2246206 C70.3713047,27.4009456 70.1720709,27.5822568 69.9800903,27.7744466 L69.9800903,27.7744466 L34.9503108,62.8012625 C30.2407787,67.510139 30.2407787,75.2154084 34.9503108,79.9240583 L34.9503108,79.9240583 C39.5907116,84.5644899 47.1416478,84.6318016 51.867046,80.1269001 L51.867046,80.1269001 L72.9597567,59.0361104 C76.0994447,55.8967083 81.2373633,55.8967083 84.3768247,59.0361104 L84.3768247,59.0361104 C87.5165127,62.1755125 87.5165127,67.3127365 84.3768247,70.4521386 L84.3768247,70.4521386 L75.5525152,79.2756444 C76.9791104,79.6672764 78.4045723,80.1468443 79.826861,80.7098154 L79.826861,80.7098154 L120.933156,39.6074904 C124.072844,36.4678616 129.21031,36.4678616 132.350224,39.6074904 L132.350224,39.6074904 C135.489912,42.7468925 135.489912,47.8838898 132.350224,51.0235186 L132.350224,51.0235186 L94.2143023,89.1559674 C95.2707625,89.9718675 96.3204228,90.826976 97.36351,91.7151739 L97.36351,91.7151739 L143.331199,45.7514444 C146.470887,42.6120423 151.608579,42.6120423 154.748267,45.7514444 L154.748267,45.7514444 C157.887955,48.8910731 157.887955,54.0280705 154.748267,57.1674726 L154.748267,57.1674726 L108.780578,103.131202 C109.668403,104.173968 110.523817,105.223532 111.340018,106.279896 L111.340018,106.279896 L149.47594,68.1476742 C152.615854,65.0082721 157.753093,65.0082721 160.893008,68.1476742 L160.893008,68.1476742 C164.032469,71.2868497 164.032469,76.4240737 160.893008,79.5634758 L160.893008,79.5634758 L119.786712,120.666027 C120.349735,122.088187 120.829346,123.513519 121.221014,124.940211 L121.221014,124.940211 L145.789095,100.441678 C148.92901,97.3025028 154.066475,97.3025028 157.20639,100.441678 L157.20639,100.441678 C160.346078,103.58108 160.346078,108.718304 157.20639,111.857706 L157.20639,111.857706 L122.567825,146.442123 L98.2264029,171.319822 C93.5170975,176.028699 93.5170975,183.733968 98.2264029,188.442845 L98.2264029,188.442845 C102.935708,193.151721 110.64168,193.151721 115.350985,188.442845 L115.350985,188.442845 L170.46688,132.771718 C170.617382,132.621003 170.762671,132.467568 170.903426,132.311188 L170.903426,132.311188 C171.220296,132.006132 171.536487,131.701982 171.852223,131.386728 L171.852223,131.386728 C185.946594,117.293414 193.039451,98.8518063 193.130795,80.3805091 L193.130795,80.3805091 L193.130795,79.6554912 C193.039451,61.1839673 185.946594,42.7425863 171.852223,28.6490461 L171.852223,28.6490461 C157.667642,14.4659835 139.071586,7.37399892 120.48097,7.37241245 L120.48097,7.37241245 C102.519335,7.37105261 84.5626855,13.988682 70.572805,27.2246206 L70.572805,27.2246206 Z M10.8532278,129.703254 C6.14392237,134.411904 6.14392237,142.1174 10.8532278,146.82605 L10.8532278,146.82605 C15.5625332,151.535153 23.2685044,151.535153 27.9778098,146.82605 L27.9778098,146.82605 L33.0003587,141.803958 C28.6591484,131.557387 28.0065956,120.119374 31.0433802,109.51494 L31.0433802,109.51494 L10.8532278,129.703254 Z M20.0694316,163.295219 C15.3601262,168.004095 15.3601262,175.709138 20.0694316,180.418241 L20.0694316,180.418241 C24.778737,185.126891 32.4847082,185.126891 37.1940136,180.418241 L37.1940136,180.418241 L52.9953572,164.61811 C49.5546653,162.586066 46.3104872,160.091451 43.3541667,157.1354 L43.3541667,157.1354 C40.3976196,154.179122 37.9032313,150.935693 35.8710018,147.495314 L35.8710018,147.495314 L20.0694316,163.295219 Z M53.6644562,172.510583 C48.9549241,177.21946 48.9549241,184.924729 53.6644562,189.633606 L53.6644562,189.633606 C58.3733083,194.342256 66.0797328,194.342256 70.7885849,189.633606 L70.7885849,189.633606 L90.9787373,169.445292 C80.3728838,172.482253 68.9347365,171.829307 58.6870051,167.488265 L58.6870051,167.488265 L53.6644562,172.510583 Z" id="Fill-14" fill="url(#linearGradient-1)"></path>
                        </g>
                    </g>
                </g>
            </g>
        </g>
    </g>
</svg>